<svg width="12" height="13" viewBox="0 0 12 13" fill="none" xmlns="http://www.w3.org/2000/svg">
<path d="M3.75 0.5C4.14844 0.5 4.5 0.851562 4.5 1.25V2H7.5V1.25C7.5 0.851562 7.82812 0.5 8.25 0.5C8.64844 0.5 9 0.851562 9 1.25V2H10.125C10.7344 2 11.25 2.51562 11.25 3.125V4.25H0.75V3.125C0.75 2.51562 1.24219 2 1.875 2H3V1.25C3 0.851562 3.32812 0.5 3.75 0.5ZM0.75 5H11.25V11.375C11.25 12.0078 10.7344 12.5 10.125 12.5H1.875C1.24219 12.5 0.75 12.0078 0.75 11.375V5ZM2.25 6.875V7.625C2.25 7.83594 2.41406 8 2.625 8H3.375C3.5625 8 3.75 7.83594 3.75 7.625V6.875C3.75 6.6875 3.5625 6.5 3.375 6.5H2.625C2.41406 6.5 2.25 6.6875 2.25 6.875ZM5.25 6.875V7.625C5.25 7.83594 5.41406 8 5.625 8H6.375C6.5625 8 6.75 7.83594 6.75 7.625V6.875C6.75 6.6875 6.5625 6.5 6.375 6.5H5.625C5.41406 6.5 5.25 6.6875 5.25 6.875ZM8.625 6.5C8.41406 6.5 8.25 6.6875 8.25 6.875V7.625C8.25 7.83594 8.41406 8 8.625 8H9.375C9.5625 8 9.75 7.83594 9.75 7.625V6.875C9.75 6.6875 9.5625 6.5 9.375 6.5H8.625ZM2.25 9.875V10.625C2.25 10.8359 2.41406 11 2.625 11H3.375C3.5625 11 3.75 10.8359 3.75 10.625V9.875C3.75 9.6875 3.5625 9.5 3.375 9.5H2.625C2.41406 9.5 2.25 9.6875 2.25 9.875ZM5.625 9.5C5.41406 9.5 5.25 9.6875 5.25 9.875V10.625C5.25 10.8359 5.41406 11 5.625 11H6.375C6.5625 11 6.75 10.8359 6.75 10.625V9.875C6.75 9.6875 6.5625 9.5 6.375 9.5H5.625ZM8.25 9.875V10.625C8.25 10.8359 8.41406 11 8.625 11H9.375C9.5625 11 9.75 10.8359 9.75 10.625V9.875C9.75 9.6875 9.5625 9.5 9.375 9.5H8.625C8.41406 9.5 8.25 9.6875 8.25 9.875Z" fill="#1C325F"/>
</svg>
