<svg width="20" height="20" viewBox="0 0 20 20" fill="none" xmlns="http://www.w3.org/2000/svg">
<path d="M9.79688 7.4375C9.79688 8 9.33984 8.42188 8.8125 8.42188C8.25 8.42188 7.82812 8 7.82812 7.4375C7.82812 6.91016 8.25 6.45312 8.8125 6.45312C9.33984 6.45312 9.79688 6.91016 9.79688 7.4375ZM19.0781 18.8633C18.5156 19.3906 17.6367 19.3906 17.0742 18.8633L12.8906 14.6445C11.4492 15.5938 9.69141 16.0859 7.79297 15.8398C4.55859 15.3828 1.95703 12.7461 1.53516 9.54688C0.9375 4.73047 4.98047 0.722656 9.76172 1.32031C12.9609 1.74219 15.5977 4.34375 16.0547 7.57812C16.3008 9.47656 15.8086 11.2344 14.8594 12.6758L19.0781 16.8594C19.6055 17.4219 19.6055 18.3008 19.0781 18.8633ZM11.8359 7.68359C11.8359 5.99609 10.4648 4.625 8.77734 4.625C7.125 4.625 5.75391 5.99609 5.75391 7.68359C5.75391 9.01953 7.75781 11.4805 8.49609 12.3945C8.56641 12.4648 8.67188 12.5 8.77734 12.5C8.88281 12.5 8.98828 12.4648 9.05859 12.3945C9.83203 11.4805 11.8359 9.01953 11.8359 7.68359Z" fill="#8E9BC3"/>
</svg>
