<svg width="21" height="18" viewBox="0 0 21 18" fill="none" xmlns="http://www.w3.org/2000/svg">
<path d="M20.0293 8.625C20.0293 9.22266 19.5312 9.6875 18.9668 9.6875H17.9043L17.9375 15C17.9375 15.0996 17.9375 15.1992 17.9375 15.2656V15.7969C17.9375 16.5605 17.3398 17.125 16.6094 17.125H16.0781C16.0117 17.125 15.9785 17.125 15.9453 17.125C15.9121 17.125 15.8457 17.125 15.8125 17.125H13.9531C13.1895 17.125 12.625 16.5605 12.625 15.7969V12.875C12.625 12.3105 12.127 11.8125 11.5625 11.8125H9.4375C8.83984 11.8125 8.375 12.3105 8.375 12.875V15.7969C8.375 16.5605 7.77734 17.125 7.04688 17.125H5.1875C5.12109 17.125 5.08789 17.125 5.02148 17.125C4.98828 17.125 4.95508 17.125 4.92188 17.125H4.39062C3.62695 17.125 3.0625 16.5605 3.0625 15.7969V12.0781C3.0625 12.0781 3.0625 12.0449 3.0625 12.0117V9.6875H2C1.40234 9.6875 0.9375 9.22266 0.9375 8.625C0.9375 8.32617 1.03711 8.06055 1.26953 7.82812L9.76953 0.423828C10.002 0.191406 10.2676 0.125 10.5 0.125C10.7324 0.125 10.998 0.224609 11.1973 0.390625L19.6641 7.82812C19.9297 8.06055 20.0625 8.32617 20.0293 8.625Z" fill="#8E9BC3"/>
</svg>
