<svg width="19" height="17" viewBox="0 0 19 17" fill="none" xmlns="http://www.w3.org/2000/svg">
<path d="M2.75 13.3125C2.75 13.6289 2.99609 13.875 3.3125 13.875H17.375C17.9727 13.875 18.5 14.4023 18.5 15C18.5 15.6328 17.9727 16.125 17.375 16.125H3.3125C1.73047 16.125 0.5 14.8945 0.5 13.3125V1.5C0.5 0.902344 0.992188 0.375 1.625 0.375C2.22266 0.375 2.75 0.902344 2.75 1.5V13.3125ZM12.5234 9.05859C12.1016 9.51562 11.3633 9.51562 10.9414 9.05859L8.9375 7.05469L5.77344 10.1836C5.35156 10.6406 4.61328 10.6406 4.19141 10.1836C3.73438 9.76172 3.73438 9.02344 4.19141 8.60156L8.12891 4.66406C8.55078 4.20703 9.28906 4.20703 9.71094 4.66406L11.75 6.66797L15.4414 2.97656C15.8633 2.51953 16.6016 2.51953 17.0234 2.97656C17.4805 3.39844 17.4805 4.13672 17.0234 4.55859L12.5234 9.05859Z" fill="#8E9BC3"/>
</svg>
