<svg width="19" height="21" viewBox="0 0 19 21" fill="none" xmlns="http://www.w3.org/2000/svg">
<path d="M9.5 1.17188C14.5469 1.17188 18.7031 5.32812 18.7031 10.375C18.7031 15.459 14.5469 19.5781 9.5 19.5781C4.41602 19.5781 0.296875 15.459 0.296875 10.375C0.296875 5.32812 4.41602 1.17188 9.5 1.17188ZM9.5 17.2031C13.248 17.2031 16.3281 14.1602 16.3281 10.375C16.3281 6.62695 13.248 3.54688 9.5 3.54688C5.71484 3.54688 2.67188 6.62695 2.67188 10.375C2.67188 14.1602 5.71484 17.2031 9.5 17.2031ZM9.5 5.625C12.0977 5.625 14.25 7.77734 14.25 10.375C14.25 13.0098 12.0977 15.125 9.5 15.125C6.86523 15.125 4.75 13.0098 4.75 10.375C4.75 7.77734 6.86523 5.625 9.5 5.625ZM9.5 12.75C10.7988 12.75 11.875 11.7109 11.875 10.375C11.875 9.07617 10.7988 8 9.5 8C8.16406 8 7.125 9.07617 7.125 10.375C7.125 11.7109 8.16406 12.75 9.5 12.75Z" fill="#8E9BC3"/>
</svg>
